<svg xmlns="http://www.w3.org/2000/svg" viewBox="0 0 32 32" fill="none">
  <!-- Outer rounded square background -->
  <rect width="32" height="32" rx="8" fill="#2563EB"/>
  <!-- Brain Path centered -->
  <g transform="translate(4, 4)" fill="none" stroke="white" stroke-width="2" stroke-linecap="round" stroke-linejoin="round">
    <path d="M12 5a3 3 0 1 0-5.997.125 4 4 0 0 0-2.526 5.77 4 4 0 0 0 .556 6.588A4 4 0 1 0 12 18Z" />
    <path d="M12 5a3 3 0 1 1 5.997.125 4 4 0 0 1 2.526 5.77 4 4 0 0 1-.556 6.588A4 4 0 1 1 12 18Z" />
    <path d="M12 5V18" />
    <path d="M12 12h2.5" />
    <path d="M12 15h1.5" />
    <path d="M12 9h3" />
    <path d="M12 12H9.5" />
    <path d="M12 15H10.5" />
    <path d="M12 9H9" />
  </g>
</svg>